<svg width="14" height="14" viewBox="0 0 14 14" fill="none" xmlns="http://www.w3.org/2000/svg">
<path d="M4.66723 7C4.66723 5.71139 5.71162 4.66648 7.00028 4.66648C8.28895 4.66648 9.3339 5.71139 9.3339 7C9.3339 8.28861 8.28895 9.33352 7.00028 9.33352C5.71162 9.33352 4.66723 8.28861 4.66723 7ZM3.40571 7C3.40571 8.98522 5.01498 10.5944 7.00028 10.5944C8.98558 10.5944 10.5949 8.98522 10.5949 7C10.5949 5.01478 8.98558 3.40557 7.00028 3.40557C5.01498 3.40557 3.40571 5.01478 3.40571 7ZM9.89709 3.26309C9.89709 3.72674 10.2731 4.10331 10.7373 4.10331C11.201 4.10331 11.5776 3.72674 11.5776 3.26309C11.5776 2.79943 11.2016 2.42342 10.7373 2.42342C10.2731 2.42342 9.89709 2.79943 9.89709 3.26309ZM4.1719 12.6978C3.4894 12.6667 3.11846 12.5531 2.87193 12.4569C2.54509 12.3297 2.31213 12.1782 2.06672 11.9334C1.82188 11.6885 1.66978 11.4556 1.54312 11.1288C1.44699 10.8822 1.33333 10.5113 1.30223 9.82884C1.26831 9.09095 1.26152 8.86931 1.26152 7C1.26152 5.13069 1.26887 4.90961 1.30223 4.17116C1.33333 3.48869 1.44755 3.11834 1.54312 2.87124C1.67034 2.54443 1.82188 2.31147 2.06672 2.06607C2.31156 1.82124 2.54453 1.66914 2.87193 1.54249C3.11846 1.44636 3.4894 1.33271 4.1719 1.30162C4.90981 1.26769 5.13147 1.2609 7.00028 1.2609C8.86966 1.2609 9.09076 1.26826 9.82923 1.30162C10.5117 1.33271 10.8821 1.44693 11.1292 1.54249C11.456 1.66914 11.689 1.82124 11.9344 2.06607C12.1792 2.3109 12.3308 2.54443 12.458 2.87124C12.5541 3.11777 12.6678 3.48869 12.6989 4.17116C12.7328 4.90961 12.7396 5.13069 12.7396 7C12.7396 8.86874 12.7328 9.09039 12.6989 9.82884C12.6678 10.5113 12.5536 10.8822 12.458 11.1288C12.3308 11.4556 12.1792 11.6885 11.9344 11.9334C11.6896 12.1782 11.456 12.3297 11.1292 12.4569C10.8827 12.5531 10.5117 12.6667 9.82923 12.6978C9.09132 12.7317 8.86966 12.7385 7.00028 12.7385C5.13147 12.7385 4.90981 12.7317 4.1719 12.6978ZM4.11422 0.0424071C3.36896 0.0763328 2.86005 0.194507 2.41504 0.367528C1.95476 0.546204 1.5646 0.785945 1.17501 1.17496C0.785977 1.56397 0.546226 1.95412 0.367543 2.41494C0.194515 2.85994 0.0763359 3.36882 0.0424088 4.11405C0.00791631 4.86042 0 5.09903 0 7C0 8.90097 0.00791631 9.13958 0.0424088 9.88595C0.0763359 10.6312 0.194515 11.1401 0.367543 11.5851C0.546226 12.0453 0.785411 12.436 1.17501 12.825C1.56404 13.2141 1.9542 13.4532 2.41504 13.6325C2.86062 13.8055 3.36896 13.9237 4.11422 13.9576C4.86118 13.9915 5.09924 14 7.00028 14C8.90189 14 9.13995 13.9921 9.88634 13.9576C10.6316 13.9237 11.1405 13.8055 11.5855 13.6325C12.0458 13.4532 12.436 13.2141 12.8256 12.825C13.2146 12.436 13.4538 12.0453 13.633 11.5851C13.8061 11.1401 13.9248 10.6312 13.9582 9.88595C13.9921 9.13901 14 8.90097 14 7C14 5.09903 13.9921 4.86042 13.9582 4.11405C13.9242 3.36882 13.8061 2.85994 13.633 2.41494C13.4538 1.95468 13.2146 1.56454 12.8256 1.17496C12.4365 0.785945 12.0458 0.546204 11.5861 0.367528C11.1405 0.194507 10.6316 0.0757674 9.88691 0.0424071C9.14051 0.00848142 8.90189 0 7.00085 0C5.09924 0 4.86118 0.00791599 4.11422 0.0424071Z" fill="#A6A6A6"/>
</svg>
