<svg width="20" height="12" viewBox="0 0 20 12" fill="none" xmlns="http://www.w3.org/2000/svg">
<path fill-rule="evenodd" clip-rule="evenodd" d="M19.5395 0.805263C19.6802 0.331579 19.5395 0 18.883 0H16.6946C16.1318 0 15.8817 0.3 15.741 0.631579C15.741 0.631579 14.6312 3.37895 13.0524 5.14737C12.5366 5.66842 12.3177 5.82632 12.0363 5.82632C11.8957 5.82632 11.6924 5.66842 11.6924 5.19474V0.805263C11.6924 0.236842 11.5361 0 11.0672 0H7.62823C7.28433 0 7.06549 0.268421 7.06549 0.505263C7.06549 1.0421 7.84707 1.16842 7.94086 2.65263V5.90526C7.94086 6.61579 7.81581 6.7421 7.53444 6.7421C6.79975 6.7421 4.98648 3.99474 3.92353 0.836843C3.70469 0.252632 3.50148 0 2.93874 0H0.750317C0.125053 0 0 0.3 0 0.631579C0 1.21579 0.734686 4.12105 3.45459 7.95789C5.26785 10.5789 7.81581 12 10.1293 12C11.5205 12 11.6924 11.6842 11.6924 11.1474V9.15789C11.6924 8.52632 11.8175 8.4 12.2708 8.4C12.5991 8.4 13.1462 8.55789 14.4436 9.82105C15.9286 11.3211 16.1787 12 17.0072 12H19.1956C19.8209 12 20.1335 11.6842 19.9459 11.0684C19.7427 10.4526 19.0393 9.55263 18.1014 8.47895C17.5856 7.86316 16.8196 7.21579 16.6008 6.88421C16.2725 6.45789 16.3663 6.26842 16.6008 5.90526C16.6008 5.88947 19.2738 2.1 19.5395 0.805263Z" fill="#A6A6A6"/>
</svg>
