<svg id="Слой_1" data-name="Слой 1" xmlns="http://www.w3.org/2000/svg" xmlns:xlink="http://www.w3.org/1999/xlink" viewBox="0 0 703 667"><defs><style>.cls-1{fill:none;}.cls-1,.cls-2,.cls-3{stroke:#000;stroke-miterlimit:10;}.cls-2{fill:url(#Безымянный_градиент_5);}</style><linearGradient id="Безымянный_градиент_5" x1="0.5" y1="333.5" x2="702.5" y2="333.5" gradientUnits="userSpaceOnUse"><stop offset="0" stop-color="#fff"/><stop offset="0.97" stop-color="#8e8e8e"/></linearGradient></defs><path class="cls-1" d="M1369,279.5" transform="translate(-612 -171)"/><ellipse class="cls-2" cx="351.5" cy="333.5" rx="351" ry="333"/><path class="cls-1" d="M864.5,297.5V369H864q-6.09,0-12,.5H792.5V309.12a214.73,214.73,0,0,1,56.76-11.62Z" transform="translate(-612 -171)"/><path d="M864.5,297.5V369H864q-6.09,0-12,.5H792.5V309.12a214.73,214.73,0,0,1,56.76-11.62Z" transform="translate(-612 -171)"/><path class="cls-1" d="M792.5,309.12V369.5h-72V351.57A215.75,215.75,0,0,1,792.5,309.12Z" transform="translate(-612 -171)"/><path d="M792.5,309.12V369.5h-72V351.57A215.75,215.75,0,0,1,792.5,309.12Z" transform="translate(-612 -171)"/><path class="cls-3" d="M720.5,351.57V369.5H702.57A210.68,210.68,0,0,1,720.5,351.57Z" transform="translate(-612 -171)"/><path class="cls-3" d="M720.5,369.5v72H660.12a215.75,215.75,0,0,1,42.45-72Z" transform="translate(-612 -171)"/><path class="cls-3" d="M720.5,441.5V501q-.5,6-.5,12.05v.5H648.5V498.26a214.73,214.73,0,0,1,11.62-56.76Z" transform="translate(-612 -171)"/><path class="cls-3" d="M720.5,525.05V585.5h-60a214.82,214.82,0,0,1-12-57.76V513.5H720Q720,519.34,720.5,525.05Z" transform="translate(-612 -171)"/><path class="cls-3" d="M720.5,585.5v72h-17a215.83,215.83,0,0,1-43-72Z" transform="translate(-612 -171)"/><path class="cls-3" d="M792.5,638V657.5h-72v-72h19.07A144.5,144.5,0,0,0,792.5,638Z" transform="translate(-612 -171)"/><path class="cls-3" d="M720.5,657.5v16.93a212.54,212.54,0,0,1-17-16.93Z" transform="translate(-612 -171)"/><path class="cls-3" d="M792.5,657.5v59.38a215.75,215.75,0,0,1-72-42.45V657.5Z" transform="translate(-612 -171)"/><path class="cls-3" d="M864.5,657v.5h-72V638A143.4,143.4,0,0,0,864,657Z" transform="translate(-612 -171)"/><path class="cls-3" d="M864.5,657.5V729H864a215.61,215.61,0,0,1-71.5-12.12V657.5Z" transform="translate(-612 -171)"/><path class="cls-3" d="M864.5,530.1V585H864a72,72,0,0,1-71.5-63.52v-8H864Q864,521.86,864.5,530.1Z" transform="translate(-612 -171)"/><path class="cls-3" d="M792.5,369.5V388A144.65,144.65,0,0,0,739,441.5H720.5v-72Z" transform="translate(-612 -171)"/><path class="cls-3" d="M852,369.5A143.07,143.07,0,0,0,792.5,388V369.5Z" transform="translate(-612 -171)"/><path class="cls-1" d="M936.5,704.07v12.46a215.68,215.68,0,0,1-72,12.47V657.5h38.33A288.23,288.23,0,0,0,936.5,704.07Z" transform="translate(-612 -171)"/><path d="M936.5,704.07v12.46a215.68,215.68,0,0,1-72,12.47V657.5h38.33A288.23,288.23,0,0,0,936.5,704.07Z" transform="translate(-612 -171)"/><path class="cls-3" d="M936.5,321.93V369.5H902.24A288.68,288.68,0,0,1,936.5,321.93Z" transform="translate(-612 -171)"/><path class="cls-3" d="M936.5,309.47v12.46a288.68,288.68,0,0,0-34.26,47.57H876.05q-5.71-.48-11.55-.5V297.5h14.24A214.82,214.82,0,0,1,936.5,309.47Z" transform="translate(-612 -171)"/><path class="cls-3" d="M936.5,369.5v19.07a142.9,142.9,0,0,0-36.53-15q1.11-2,2.27-4Z" transform="translate(-612 -171)"/><path class="cls-3" d="M936.5,657.5v46.57a288.23,288.23,0,0,1-33.67-46.57Z" transform="translate(-612 -171)"/><path class="cls-3" d="M936.5,637.43V657.5H902.83c-1-1.67-1.93-3.34-2.86-5A142.9,142.9,0,0,0,936.5,637.43Z" transform="translate(-612 -171)"/><path class="cls-3" d="M936.5,585.5v51.93a142.9,142.9,0,0,1-36.53,15,285.44,285.44,0,0,1-26.76-67Z" transform="translate(-612 -171)"/><path class="cls-3" d="M936.5,527.74V585.5H873.21q-.15-.53-.27-1a72,72,0,0,0,63-71h0Q936,520.68,936.5,527.74Z" transform="translate(-612 -171)"/><path class="cls-3" d="M936,513.5a72,72,0,0,1-63,71,287,287,0,0,1-8.44-54.35V513.5Z" transform="translate(-612 -171)"/><path class="cls-1" d="M1369.5,279" transform="translate(-612 -171)"/><path class="cls-1" d="M1037,373.53A143.08,143.08,0,0,0,1001.5,388V369.5h33.26Q1035.92,371.51,1037,373.53Z" transform="translate(-612 -171)"/><path d="M1037,373.53A143.08,143.08,0,0,0,1001.5,388V369.5h33.26Q1035.92,371.51,1037,373.53Z" transform="translate(-612 -171)"/><path class="cls-1" d="M1061,369.5a143.77,143.77,0,0,0-23.92,4q-1.11-2-2.27-4Z" transform="translate(-612 -171)"/><path d="M1061,369.5a143.77,143.77,0,0,0-23.92,4q-1.11-2-2.27-4Z" transform="translate(-612 -171)"/><path class="cls-1" d="M1145.5,309.47v60h-60.45q-5.71-.48-11.55-.5V297.5h14.24A214.82,214.82,0,0,1,1145.5,309.47Z" transform="translate(-612 -171)"/><path d="M1145.5,309.47v60h-60.45q-5.71-.48-11.55-.5V297.5h14.24A214.82,214.82,0,0,1,1145.5,309.47Z" transform="translate(-612 -171)"/><path class="cls-1" d="M1064.06,441.55a72,72,0,0,0-62.56,63v-63h62.55A.11.11,0,0,1,1064.06,441.55Z" transform="translate(-612 -171)"/><path d="M1064.06,441.55a72,72,0,0,0-62.56,63v-63h62.55A.11.11,0,0,1,1064.06,441.55Z" transform="translate(-612 -171)"/><path class="cls-1" d="M1073,513v.5h-71.5v-9a72,72,0,0,1,62.56-63A288.22,288.22,0,0,1,1073,513Z" transform="translate(-612 -171)"/><path d="M1073,513v.5h-71.5v-9a72,72,0,0,1,62.56-63A288.22,288.22,0,0,1,1073,513Z" transform="translate(-612 -171)"/><path class="cls-1" d="M1073,513.5a288.06,288.06,0,0,1-8.94,71,72,72,0,0,1-62.56-63v-8Z" transform="translate(-612 -171)"/><path d="M1073,513.5a288.06,288.06,0,0,1-8.94,71,72,72,0,0,1-62.56-63v-8Z" transform="translate(-612 -171)"/><path class="cls-1" d="M1064.06,584.45q-.12.52-.27,1H1001.5v-64A72,72,0,0,0,1064.06,584.45Z" transform="translate(-612 -171)"/><path d="M1064.06,584.45q-.12.52-.27,1H1001.5v-64A72,72,0,0,0,1064.06,584.45Z" transform="translate(-612 -171)"/><path class="cls-1" d="M1063.79,585.5a285.44,285.44,0,0,1-26.76,67A143.08,143.08,0,0,1,1001.5,638V585.5Z" transform="translate(-612 -171)"/><path d="M1063.79,585.5a285.44,285.44,0,0,1-26.76,67A143.08,143.08,0,0,1,1001.5,638V585.5Z" transform="translate(-612 -171)"/><path class="cls-1" d="M1073.5,585.5V657h-.5a144.06,144.06,0,0,1-36-4.53,285.44,285.44,0,0,0,26.76-67Z" transform="translate(-612 -171)"/><path d="M1073.5,585.5V657h-.5a144.06,144.06,0,0,1-36-4.53,285.44,285.44,0,0,0,26.76-67Z" transform="translate(-612 -171)"/><path class="cls-1" d="M1037,652.47c-.93,1.69-1.88,3.36-2.85,5H1001.5V638A143.08,143.08,0,0,0,1037,652.47Z" transform="translate(-612 -171)"/><path d="M1037,652.47c-.93,1.69-1.88,3.36-2.85,5H1001.5V638A143.08,143.08,0,0,0,1037,652.47Z" transform="translate(-612 -171)"/><path class="cls-1" d="M1073.5,657.5V729h-.5a215.61,215.61,0,0,1-71.5-12.12v-14a288.85,288.85,0,0,0,32.68-45.43Z" transform="translate(-612 -171)"/><path d="M1073.5,657.5V729h-.5a215.61,215.61,0,0,1-71.5-12.12v-14a288.85,288.85,0,0,0,32.68-45.43Z" transform="translate(-612 -171)"/><path class="cls-1" d="M1145.5,657.5v59a215.68,215.68,0,0,1-72,12.47V657.5Z" transform="translate(-612 -171)"/><path d="M1145.5,657.5v59a215.68,215.68,0,0,1-72,12.47V657.5Z" transform="translate(-612 -171)"/><path class="cls-1" d="M1217.5,657.5v16a215.83,215.83,0,0,1-72,43v-59Z" transform="translate(-612 -171)"/><path d="M1217.5,657.5v16a215.83,215.83,0,0,1-72,43v-59Z" transform="translate(-612 -171)"/><path class="cls-1" d="M1233.53,657.5a209,209,0,0,1-16,16v-16Z" transform="translate(-612 -171)"/><path d="M1233.53,657.5a209,209,0,0,1-16,16v-16Z" transform="translate(-612 -171)"/><path class="cls-3" d="M1034.76,369.5H1001.5V323.07A288.94,288.94,0,0,1,1034.76,369.5Z" transform="translate(-612 -171)"/><path class="cls-3" d="M1034.18,657.5a288.85,288.85,0,0,1-32.68,45.43V657.5Z" transform="translate(-612 -171)"/><path class="cls-3" d="M1073.5,297.5V369h-.5q-6.09,0-12,.5h-26.19a288.94,288.94,0,0,0-33.26-46.43V309.12a214.73,214.73,0,0,1,56.76-11.62Z" transform="translate(-612 -171)"/><path class="cls-3" d="M1073.5,657v.5h-39.32c1-1.67,1.92-3.34,2.85-5a144.06,144.06,0,0,0,36,4.53Z" transform="translate(-612 -171)"/><path class="cls-3" d="M1064.05,441.5H1001.5V388A143.08,143.08,0,0,1,1037,373.53,285.94,285.94,0,0,1,1064.05,441.5Z" transform="translate(-612 -171)"/><path class="cls-3" d="M1073.5,369.5V441h-.5a71.92,71.92,0,0,0-8.48.5h-.47a285.94,285.94,0,0,0-27-68,143.77,143.77,0,0,1,23.92-4Z" transform="translate(-612 -171)"/><path class="cls-3" d="M1217.5,352.47v17h-72v-60A215.83,215.83,0,0,1,1217.5,352.47Z" transform="translate(-612 -171)"/><path class="cls-3" d="M1234.43,369.5H1217.5v-17A212.54,212.54,0,0,1,1234.43,369.5Z" transform="translate(-612 -171)"/><path class="cls-3" d="M1276.88,441.5H1217.5v-72h16.93A215.75,215.75,0,0,1,1276.88,441.5Z" transform="translate(-612 -171)"/><path class="cls-3" d="M1145.5,369.5v19.07a142.8,142.8,0,0,0-60.45-19.07Z" transform="translate(-612 -171)"/><path class="cls-3" d="M1217.5,369.5v72H1198a144.5,144.5,0,0,0-52.52-52.93V369.5Z" transform="translate(-612 -171)"/><path class="cls-3" d="M1145.5,637.43V657.5h-72V657A143.17,143.17,0,0,0,1145.5,637.43Z" transform="translate(-612 -171)"/><path class="cls-3" d="M1217.5,585.5v72h-72V637.43a144.41,144.41,0,0,0,51.93-51.93Z" transform="translate(-612 -171)"/><path class="cls-3" d="M1276.53,585.5a215.83,215.83,0,0,1-43,72h-16v-72Z" transform="translate(-612 -171)"/><path class="cls-3" d="M1145,513c0,.17,0,.33,0,.5H1073.5v-27H1140A71.57,71.57,0,0,1,1145,513Z" transform="translate(-612 -171)"/><path class="cls-3" d="M1145,513.5a71.56,71.56,0,0,1-5.44,27h-66v-27Z" transform="translate(-612 -171)"/><path class="cls-3" d="M1277.89,581.56c-.44,1.32-.89,2.63-1.36,3.94h-59v-72Z" transform="translate(-612 -171)"/><path class="cls-3" d="M1217,513v.5h-71.5v-72H1198A143.4,143.4,0,0,1,1217,513Z" transform="translate(-612 -171)"/><path class="cls-3" d="M1217,513.5a143.17,143.17,0,0,1-19.57,72H1145.5v-72Z" transform="translate(-612 -171)"/><path class="cls-3" d="M1277.89,444.48l-60.39,69v-72h59.38C1277.23,442.49,1277.57,443.48,1277.89,444.48Z" transform="translate(-612 -171)"/></svg>